:FULLY-SPECIFIED
:FORCE-ALL-JOINTS-BE-3DOF
:DEGREES
1937
root 0.688846 14.2139 28.7539 948.349 51.7981 224.214
lfemur -57.3704 21.8741 -14.829
ltibia 84.7247 0 0
lfoot -10.4352 12.7738 0
ltoes -22.3252 0 0
rfemur -19.2393 -11.5751 22.845
rtibia 65.649 0 0
rfoot -31.5072 -31.7776 0
rtoes -25.5855 0 0
lowerback 16.4106 1.05157 4.8993
upperback 0.158167 2.98779 4.96482
thorax -9.20144 1.42695 1.81128
lowerneck -2.63212 10.8114 4.00786
upperneck 2.36083 14.5892 -7.47176
head 2.32781 7.27592 -2.60863
lclavicle -1.48235e-14 1.21826e-14 0
lhumerus 31.7981 -36.9787 51.8992
lradius 85.5358 0 0
lwrist 0.471024 0 0
lhand -26.3879 59.6157 0
lfingers 7.12502 0 0
lthumb 0.171402 -32.3025 0
rclavicle -1.48235e-14 1.21826e-14 0
rhumerus -64.1172 29.6003 -88.938
rradius 111.462 0 0
rwrist -101.104 0 0
rhand -7.5996 -370.612 0
rfingers 7.12502 0 0
rthumb 18.2446 321.276 0
1938
root 0.649973 14.2165 28.7624 947.441 51.8041 223.21
lfemur -57.4953 21.8603 -14.9841
ltibia 84.9335 0 0
lfoot -10.5503 12.9396 0
ltoes -22.3485 0 0
rfemur -19.4165 -11.6775 22.8837
rtibia 65.7008 0 0
rfoot -31.5184 -31.7878 0
rtoes -25.6055 0 0
lowerback 16.3834 1.01153 4.93102
upperback 0.143459 2.94116 4.96499
thorax -9.19901 1.4037 1.80643
lowerneck -2.61422 10.8534 4.04901
upperneck 2.31456 14.6465 -7.549
head 2.3199 7.3042 -2.63929
lclavicle -1.48366e-14 1.24384e-14 0
lhumerus 31.5641 -37.3236 51.6008
lradius 86.1365 0 0
lwrist 0.941838 0 0
lhand -26.3262 59.6733 0
lfingers 7.12502 0 0
lthumb 0.231029 -33.6565 0
rclavicle -1.48366e-14 1.24384e-14 0
rhumerus -64.0674 29.7373 -89.075
rradius 111.339 0 0
rwrist -100.187 0 0
rhand -7.29345 -371.442 0
rfingers 7.12502 0 0
rthumb 18.5395 320.456 0
1939
root 0.611356 14.219 28.7708 946.539 51.81 222.213
lfemur -57.6189 21.847 -15.1376
ltibia 85.1405 0 0
lfoot -10.6647 13.1045 0
ltoes -22.3713 0 0
rfemur -19.5925 -11.7792 22.9221
rtibia 65.752 0 0
rfoot -31.5294 -31.7978 0
rtoes -25.6253 0 0
lowerback 16.3564 0.971774 4.96251
upperback 0.128857 2.89485 4.96514
thorax -9.19659 1.3806 1.80161
lowerneck -2.59646 10.8949 4.08987
upperneck 2.26863 14.7034 -7.62566
head 2.31205 7.33225 -2.66971
lclavicle -1.48486e-14 1.26942e-14 0
lhumerus 31.3309 -37.6648 51.3053
lradius 86.7309 0 0
lwrist 1.40711 0 0
lhand -26.2651 59.7303 0
lfingers 7.12502 0 0
lthumb 0.290009 -35.0086 0
rclavicle -1.48486e-14 1.26942e-14 0
rhumerus -64.018 29.8729 -89.2111
rradius 111.217 0 0
rwrist -99.2771 0 0
rhand -6.9895 -372.265 0
rfingers 7.12502 0 0
rthumb 18.8323 319.643 0
1940
root 0.573002 14.2216 28.7791 945.644 51.8158 221.223
lfemur -57.7413 21.834 -15.2896
ltibia 85.3457 0 0
lfoot -10.7782 13.2684 0
ltoes -22.3936 0 0
rfemur -19.7671 -11.8802 22.9601
rtibia 65.8028 0 0
rfoot -31.5401 -31.8078 0
rtoes -25.6451 0 0
lowerback 16.3296 0.932299 4.99377
upperback 0.114362 2.84887 4.96529
thorax -9.19417 1.35767 1.79682
lowerneck -2.57885 10.9362 4.13044
upperneck 2.22305 14.7599 -7.70171
head 2.30426 7.36009 -2.6999
lclavicle -1.48596e-14 1.29498e-14 0
lhumerus 31.0987 -38.0022 51.0127
lradius 87.3188 0 0
lwrist 1.86672 0 0
lhand -26.2047 59.7869 0
lfingers 7.12502 0 0
lthumb 0.348324 -36.3585 0
rclavicle -1.48596e-14 1.29498e-14 0
rhumerus -63.9693 30.0072 -89.3462
rradius 111.095 0 0
rwrist -98.374 0 0
rhand -6.68781 -373.082 0
rfingers 7.12502 0 0
rthumb 19.123 318.835 0
1941
root 0.534917 14.2241 28.7874 944.756 51.8214 220.241
lfemur -57.8624 21.8214 -15.4399
ltibia 85.549 0 0
lfoot -10.891 13.4312 0
ltoes -22.4154 0 0
rfemur -19.9403 -11.9806 22.9977
rtibia 65.8531 0 0
rfoot -31.5505 -31.8177 0
rtoes -25.6648 0 0
lowerback 16.303 0.893116 5.02479
upperback 0.0999783 2.80322 4.96543
thorax -9.19176 1.33491 1.79206
lowerneck -2.56139 10.9771 4.17071
upperneck 2.17784 14.8159 -7.77715
head 2.29653 7.3877 -2.72985
lclavicle -1.48697e-14 1.32053e-14 0
lhumerus 30.8675 -38.3357 50.723
lradius 87.9 0 0
lwrist 2.32055 0 0
lhand -26.145 59.8428 0
lfingers 7.12502 0 0
lthumb 0.405962 -37.7059 0
rclavicle -1.48697e-14 1.32053e-14 0
rhumerus -63.9211 30.1402 -89.4805
rradius 110.975 0 0
rwrist -97.4778 0 0
rhand -6.38844 -373.893 0
rfingers 7.12502 0 0
rthumb 19.4114 318.033 0
1942
root 0.497108 14.2266 28.7956 943.875 51.8268 219.267
lfemur -57.9823 21.8092 -15.5886
ltibia 85.7504 0 0
lfoot -11.003 13.593 0
ltoes -22.4367 0 0
rfemur -20.1121 -12.0802 23.035
rtibia 65.9028 0 0
rfoot -31.5606 -31.8276 0
rtoes -25.6845 0 0
lowerback 16.2765 0.854232 5.05557
upperback 0.0857075 2.75792 4.96555
thorax -9.18936 1.31231 1.78733
lowerneck -2.54408 11.0177 4.21067
upperneck 2.13299 14.8715 -7.85195
head 2.28886 7.41508 -2.75956
lclavicle -1.48788e-14 1.34605e-14 0
lhumerus 30.6373 -38.6653 50.4363
lradius 88.4744 0 0
lwrist 2.76849 0 0
lhand -26.086 59.8982 0
lfingers 7.12502 0 0
lthumb 0.462906 -39.0508 0
rclavicle -1.48788e-14 1.34605e-14 0
rhumerus -63.8735 30.2719 -89.6138
rradius 110.855 0 0
rwrist -96.5889 0 0
rhand -6.09143 -374.698 0
rfingers 7.12502 0 0
rthumb 19.6975 317.238 0
1943
root 0.459582 14.2292 28.8036 943.001 51.832 218.3
lfemur -58.1008 21.7973 -15.7356
ltibia 85.9499 0 0
lfoot -11.1141 13.7538 0
ltoes -22.4575 0 0
rfemur -20.2825 -12.1791 23.0718
rtibia 65.952 0 0
rfoot -31.5705 -31.8373 0
rtoes -25.704 0 0
lowerback 16.2503 0.815654 5.08609
upperback 0.0715527 2.71296 4.96567
thorax -9.18697 1.2899 1.78263
lowerneck -2.52692 11.058 4.25031
upperneck 2.08852 14.9265 -7.92611
head 2.28126 7.44222 -2.78901
lclavicle -1.4887e-14 1.37156e-14 0
lhumerus 30.4081 -38.9908 50.1527
lradius 89.0419 0 0
lwrist 3.21042 0 0
lhand -26.0278 59.9531 0
lfingers 7.12502 0 0
lthumb 0.519141 -40.3928 0
rclavicle -1.4887e-14 1.37156e-14 0
rhumerus -63.8264 30.4021 -89.7462
rradius 110.736 0 0
rwrist -95.7073 0 0
rhand -5.79687 -375.496 0
rfingers 7.12502 0 0
rthumb 19.9812 316.45 0
1944
root 0.422347 14.2317 28.8116 942.135 51.8371 217.342
lfemur -58.218 21.7859 -15.8809
ltibia 86.1475 0 0
lfoot -11.2244 13.9134 0
ltoes -22.4778 0 0
rfemur -20.4514 -12.2773 23.1082
rtibia 66.0007 0 0
rfoot -31.5801 -31.8469 0
rtoes -25.7235 0 0
lowerback 16.2242 0.777389 5.11637
upperback 0.0575169 2.66837 4.96577
thorax -9.18458 1.26766 1.77797
lowerneck -2.50993 11.0979 4.28963
upperneck 2.04445 14.9811 -7.99961
head 2.27372 7.46912 -2.8182
lclavicle -1.48943e-14 1.39704e-14 0
lhumerus 30.1801 -39.3122 49.8722
lradius 89.6024 0 0
lwrist 3.64622 0 0
lhand -25.9703 60.0073 0
lfingers 7.12502 0 0
lthumb 0.574653 -41.7318 0
rclavicle -1.48943e-14 1.39704e-14 0
rhumerus -63.78 30.5309 -89.8775
rradius 110.618 0 0
rwrist -94.8333 0 0
rhand -5.50479 -376.287 0
rfingers 7.12502 0 0
rthumb 20.2626 315.668 0
1945
root 0.385408 14.2341 28.8195 941.276 51.842 216.392
lfemur -58.3338 21.7749 -16.0245
ltibia 86.3429 0 0
lfoot -11.3339 14.0719 0
ltoes -22.4975 0 0
rfemur -20.6188 -12.3747 23.1442
rtibia 66.0488 0 0
rfoot -31.5893 -31.8564 0
rtoes -25.7429 0 0
lowerback 16.1984 0.739444 5.14638
upperback 0.0436029 2.62414 4.96586
thorax -9.1822 1.2456 1.77333
lowerneck -2.4931 11.1374 4.32861
upperneck 2.00077 15.0352 -8.07244
head 2.26625 7.49578 -2.84713
lclavicle -1.49008e-14 1.42249e-14 0
lhumerus 29.9531 -39.6294 49.5949
lradius 90.1556 0 0
lwrist 4.07577 0 0
lhand -25.9136 60.0609 0
lfingers 7.12502 0 0
lthumb 0.629425 -43.0676 0
rclavicle -1.49008e-14 1.42249e-14 0
rhumerus -63.7343 30.6583 -90.0079
rradius 110.502 0 0
rwrist -93.9669 0 0
rhand -5.21525 -377.072 0
rfingers 7.12502 0 0
rthumb 20.5415 314.892 0
1946
root 0.348773 14.2366 28.8273 940.425 51.8468 215.451
lfemur -58.4483 21.7644 -16.1662
ltibia 86.5364 0 0
lfoot -11.4424 14.2293 0
ltoes -22.5168 0 0
rfemur -20.7847 -12.4714 23.1798
rtibia 66.0964 0 0
rfoot -31.5983 -31.8659 0
rtoes -25.7622 0 0
lowerback 16.1727 0.701826 5.17612
upperback 0.0298134 2.58029 4.96594
thorax -9.17983 1.22373 1.76873
lowerneck -2.47644 11.1765 4.36726
upperneck 1.95749 15.0887 -8.14457
head 2.25885 7.52218 -2.87579
lclavicle -1.49063e-14 1.44791e-14 0
lhumerus 29.7273 -39.9423 49.3209
lradius 90.7014 0 0
lwrist 4.49897 0 0
lhand -25.8577 60.1139 0
lfingers 7.12502 0 0
lthumb 0.683444 -44.3999 0
rclavicle -1.49063e-14 1.44791e-14 0
rhumerus -63.6891 30.7842 -90.1372
rradius 110.386 0 0
rwrist -93.1084 0 0
rhand -4.92832 -377.849 0
rfingers 7.12502 0 0
rthumb 20.8179 314.124 0
1947
root 0.312449 14.2391 28.835 939.582 51.8513 214.518
lfemur -58.5613 21.7542 -16.3062
ltibia 86.7277 0 0
lfoot -11.55 14.3854 0
ltoes -22.5355 0 0
rfemur -20.949 -12.5673 23.215
rtibia 66.1434 0 0
rfoot -31.607 -31.8752 0
rtoes -25.7814 0 0
lowerback 16.1473 0.664543 5.20558
upperback 0.0161512 2.53682 4.96602
thorax -9.17748 1.20206 1.76417
lowerneck -2.45995 11.2153 4.40556
upperneck 1.91464 15.1418 -8.216
head 2.25152 7.54832 -2.90417
lclavicle -1.49111e-14 1.4733e-14 0
lhumerus 29.5026 -40.2509 49.0502
lradius 91.2398 0 0
lwrist 4.91568 0 0
lhand -25.8025 60.1663 0
lfingers 7.12502 0 0
lthumb 0.736694 -45.7286 0
rclavicle -1.49111e-14 1.4733e-14 0
rhumerus -63.6446 30.9086 -90.2654
rradius 110.271 0 0
rwrist -92.258 0 0
rhand -4.64405 -378.619 0
rfingers 7.12502 0 0
rthumb 21.0918 313.363 0
1948
root 0.276443 14.2415 28.8426 938.747 51.8557 213.595
lfemur -58.6728 21.7445 -16.4442
ltibia 86.9169 0 0
lfoot -11.6567 14.5404 0
ltoes -22.5536 0 0
rfemur -21.1117 -12.6623 23.2497
rtibia 66.1898 0 0
rfoot -31.6154 -31.8844 0
rtoes -25.8006 0 0
lowerback 16.1221 0.627601 5.23477
upperback 0.00261917 2.49374 4.96607
thorax -9.17513 1.18058 1.75964
lowerneck -2.44363 11.2537 4.44351
upperneck 1.87221 15.1943 -8.28671
head 2.24427 7.57419 -2.93228
lclavicle -1.4915e-14 1.49865e-14 0
lhumerus 29.2792 -40.555 48.7829
lradius 91.7705 0 0
lwrist 5.3258 0 0
lhand -25.7482 60.218 0
lfingers 7.12502 0 0
lthumb 0.789159 -47.0535 0
rclavicle -1.4915e-14 1.49865e-14 0
rhumerus -63.6007 31.0314 -90.3926
rradius 110.157 0 0
rwrist -91.4157 0 0
rhand -4.3625 -379.382 0
rfingers 7.12502 0 0
rthumb 21.363 312.609 0
1949
root 0.240761 14.244 28.8502 937.92 51.8598 212.68
lfemur -58.7829 21.7353 -16.5804
ltibia 87.1039 0 0
lfoot -11.7625 14.6941 0
ltoes -22.5712 0 0
rfemur -21.2728 -12.7565 23.284
rtibia 66.2356 0 0
rfoot -31.6234 -31.8935 0
rtoes -25.8196 0 0
lowerback 16.0971 0.591007 5.26367
upperback -0.0107799 2.45107 4.96612
thorax -9.1728 1.1593 1.75515
lowerneck -2.42749 11.2917 4.48109
upperneck 1.83021 15.2463 -8.3567
head 2.23709 7.5998 -2.96009
lclavicle -1.49181e-14 1.52397e-14 0
lhumerus 29.0569 -40.8546 48.519
lradius 92.2934 0 0
lwrist 5.7292 0 0
lhand -25.6947 60.269 0
lfingers 7.12502 0 0
lthumb 0.840826 -48.3743 0
rclavicle -1.49181e-14 1.52397e-14 0
rhumerus -63.5576 31.1527 -90.5187
rradius 110.044 0 0
rwrist -90.5819 0 0
rhand -4.08372 -380.137 0
rfingers 7.12502 0 0
rthumb 21.6316 311.862 0
